<svg xmlns="http://www.w3.org/2000/svg" viewBox="0 0 1845 599" width="1845" height="599">
<rect width="100%" height="100%" fill="#000"/>
<path d="M 1536.00 502.50 L 108.00 500.50 L 105.50 497.00 L 109.00 494.50 L 1533.00 496.50 L 1553.50 471.00 L 1592.50 408.00 L 1623.50 345.00 L 1638.50 306.00 L 1637.00 303.50 L 1616.00 298.50 L 1593.00 297.50 L 1515.00 315.50 L 1512.00 314.50 L 1511.50 311.00 L 1560.00 291.50 L 1536.00 288.50 L 1523.00 289.50 L 1520.50 288.00 L 1521.00 284.50 L 1591.00 270.50 L 1665.00 232.50 L 1683.50 211.00 L 1702.50 182.00 L 1720.50 142.00 L 1731.50 95.00 L 1733.00 92.50 L 1737.00 92.50 L 1751.00 96.50 L 1760.50 105.00 L 1770.50 127.00 L 1772.50 163.00 L 1768.50 183.00 L 1763.50 196.00 L 1746.50 221.00 L 1768.00 235.50 L 1779.50 254.00 L 1780.00 260.50 L 1774.00 262.50 L 1749.00 287.50 L 1731.00 295.50 L 1712.00 298.50 L 1696.50 331.00 L 1675.50 366.00 L 1632.50 423.00 L 1583.00 473.50 L 1548.00 498.50 L 1536.00 502.50 Z" fill="#fff" stroke="none"/>
<path d="M 220.00 484.50 L 183.00 481.50 L 154.00 468.50 L 141.50 457.00 L 134.50 444.00 L 129.50 417.00 L 129.50 379.00 L 195.00 378.50 L 197.50 430.00 L 203.00 436.50 L 210.00 437.50 L 216.00 435.50 L 222.50 426.00 L 223.50 407.00 L 218.00 384.50 L 201.00 369.50 L 150.00 334.50 L 136.50 318.00 L 128.50 296.00 L 126.50 276.00 L 127.50 253.00 L 135.50 225.00 L 145.50 213.00 L 160.00 203.50 L 188.00 195.50 L 209.00 194.50 L 229.00 196.50 L 259.00 206.50 L 267.50 212.00 L 279.50 226.00 L 285.50 252.00 L 286.00 284.50 L 218.50 284.00 L 218.50 252.00 L 216.50 246.00 L 212.00 242.50 L 204.00 242.50 L 199.00 245.50 L 195.50 252.00 L 194.50 271.00 L 198.50 285.00 L 211.00 296.50 L 256.00 325.50 L 276.00 343.50 L 284.50 357.00 L 291.50 388.00 L 290.50 433.00 L 286.50 449.00 L 279.50 460.00 L 265.00 471.50 L 250.00 478.50 L 220.00 484.50 Z" fill="#fff" stroke="none"/>
<path d="M 944.00 478.50 L 872.50 478.00 L 872.50 258.00 L 870.00 256.50 L 775.00 257.50 L 775.00 308.50 L 818.50 309.00 L 818.50 361.00 L 775.00 361.50 L 774.00 478.50 L 702.00 478.50 L 701.50 201.00 L 987.00 200.50 L 987.50 256.00 L 944.50 257.00 L 944.00 478.50 Z" fill="#fff" stroke="none"/>
<path d="M 553.00 478.50 L 463.50 478.00 L 451.50 412.00 L 442.50 337.00 L 440.50 340.00 L 421.00 478.50 L 331.50 478.00 L 300.00 200.50 L 369.50 201.00 L 384.50 384.00 L 390.50 313.00 L 404.50 201.00 L 479.50 201.00 L 495.00 391.50 L 502.50 303.00 L 516.00 200.50 L 585.50 201.00 L 553.00 478.50 Z" fill="#fff" stroke="none"/>
<path d="M 673.00 478.50 L 600.50 477.00 L 602.00 200.50 L 673.50 201.00 L 673.00 478.50 Z" fill="#fff" stroke="none"/>
<path d="M 1241.00 478.50 L 1166.50 477.00 L 1139.50 364.00 L 1138.50 478.00 L 1065.50 478.00 L 1066.00 200.50 L 1138.00 200.50 L 1139.00 305.50 L 1169.50 202.00 L 1237.50 201.00 L 1196.50 326.00 L 1241.00 478.50 Z" fill="#fff" stroke="none"/>
<path d="M 1326.00 478.50 L 1253.50 477.00 L 1255.00 200.50 L 1326.50 201.00 L 1326.00 478.50 Z" fill="#fff" stroke="none"/>
<path d="M 1457.00 478.50 L 1385.50 478.00 L 1385.50 258.00 L 1343.00 256.50 L 1342.50 201.00 L 1500.00 200.50 L 1500.50 256.00 L 1457.50 257.00 L 1457.00 478.50 Z" fill="#fff" stroke="none"/>
</svg>